<svg xmlns="http://www.w3.org/2000/svg" xmlns:xlink="http://www.w3.org/1999/xlink" contentStyleType="text/css" height="2329px" preserveAspectRatio="none" style="width:2374px;height:2329px;background:#FFFFFF;" version="1.1" viewBox="0 0 2374 2329" width="2374px" zoomAndPan="magnify"><defs/><g><text fill="#000000" font-family="sans-serif" font-size="14" font-weight="bold" lengthAdjust="spacing" textLength="439.5576" x="960.2212" y="22.9951">Flujo del Programa - Gesti&#243;n de Pacientes y Medicaci&#243;n</text><!--entity Usuario--><g id="elem_Usuario"><ellipse cx="923.1021" cy="51.2969" fill="#F1F1F1" rx="8" ry="8" style="stroke:#181818;stroke-width:0.5;"/><path d="M923.1021,59.2969 L923.1021,86.2969 M910.1021,67.2969 L936.1021,67.2969 M923.1021,86.2969 L910.1021,101.2969 M923.1021,86.2969 L936.1021,101.2969 " fill="none" style="stroke:#181818;stroke-width:0.5;"/><text fill="#000000" font-family="sans-serif" font-size="14" lengthAdjust="spacing" textLength="53.2041" x="896.5" y="115.792">Usuario</text></g><g id="elem_Menu Principal"><ellipse cx="922.7543" cy="196.9477" fill="#F1F1F1" rx="73.7543" ry="17.1509" style="stroke:#181818;stroke-width:0.5;"/><text fill="#000000" font-family="sans-serif" font-size="14" lengthAdjust="spacing" textLength="102.792" x="868.3584" y="200.6953">Menu Principal</text></g><g id="elem_Gestion de Medicacion"><ellipse cx="1302.0955" cy="312.716" fill="#F1F1F1" rx="97.5955" ry="21.9191" style="stroke:#181818;stroke-width:0.5;"/><text fill="#000000" font-family="sans-serif" font-size="14" lengthAdjust="spacing" textLength="158.7441" x="1222.7235" y="315.5627">Gestion de Medicacion</text></g><g id="elem_Formulario Registro de Paciente"><ellipse cx="982.2298" cy="970.3428" fill="#F1F1F1" rx="128.2298" ry="28.046" style="stroke:#181818;stroke-width:0.5;"/><text fill="#000000" font-family="sans-serif" font-size="14" lengthAdjust="spacing" textLength="224.834" x="869.8128" y="973.1895">Formulario Registro de Paciente</text></g><g id="elem_Lista de Pacientes para Edicion"><ellipse cx="615.1414" cy="970.2252" fill="#F1F1F1" rx="125.1414" ry="27.4283" style="stroke:#181818;stroke-width:0.5;"/><text fill="#000000" font-family="sans-serif" font-size="14" lengthAdjust="spacing" textLength="218.292" x="505.9954" y="973.0718">Lista de Pacientes para Edicion</text></g><g id="elem_Formulario Completo?"><ellipse cx="1194.8503" cy="1107.3669" fill="#F1F1F1" rx="95.8503" ry="21.5701" style="stroke:#181818;stroke-width:0.5;"/><text fill="#000000" font-family="sans-serif" font-size="14" lengthAdjust="spacing" textLength="154.8682" x="1117.4162" y="1110.2136">Formulario Completo?</text></g><g id="elem_Mostrar Error de Validacion"><ellipse cx="1424.092" cy="1238.7153" fill="#F1F1F1" rx="112.592" ry="24.9184" style="stroke:#181818;stroke-width:0.5;"/><text fill="#000000" font-family="sans-serif" font-size="14" lengthAdjust="spacing" textLength="191.4746" x="1328.3547" y="1241.562">Mostrar Error de Validacion</text></g><g id="elem_Confirmacion de Registro Completado"><ellipse cx="929.8236" cy="1238.8616" fill="#F1F1F1" rx="148.3236" ry="32.0647" style="stroke:#181818;stroke-width:0.5;"/><text fill="#000000" font-family="sans-serif" font-size="14" lengthAdjust="spacing" textLength="266.9912" x="796.328" y="1241.7083">Confirmacion de Registro Completado</text></g><g id="elem_Que desea hacer?"><ellipse cx="1319.7839" cy="836.8536" fill="#F1F1F1" rx="83.2839" ry="19.0568" style="stroke:#181818;stroke-width:0.5;"/><text fill="#000000" font-family="sans-serif" font-size="14" lengthAdjust="spacing" textLength="126.3418" x="1256.1156" y="839.8692">Que desea hacer?</text></g><g id="elem_Busqueda de Pacientes"><ellipse cx="648.2479" cy="1107.1465" fill="#F1F1F1" rx="99.7479" ry="22.3496" style="stroke:#181818;stroke-width:0.5;"/><text fill="#000000" font-family="sans-serif" font-size="14" lengthAdjust="spacing" textLength="163.502" x="566.4969" y="1109.9931">Busqueda de Pacientes</text></g><g id="elem_Seleccionar Paciente para Edicion"><ellipse cx="612.0238" cy="1239.0016" fill="#F1F1F1" rx="134.0238" ry="29.2048" style="stroke:#181818;stroke-width:0.5;"/><text fill="#000000" font-family="sans-serif" font-size="14" lengthAdjust="spacing" textLength="237.0566" x="493.4955" y="1241.8483">Seleccionar Paciente para Edicion</text></g><g id="elem_Formulario Edicion de Paciente"><ellipse cx="1293.155" cy="1363.1279" fill="#F1F1F1" rx="124.655" ry="27.331" style="stroke:#181818;stroke-width:0.5;"/><text fill="#000000" font-family="sans-serif" font-size="14" lengthAdjust="spacing" textLength="217.2598" x="1184.5251" y="1365.9746">Formulario Edicion de Paciente</text></g><g id="elem_Formulario Completo? : Si/No"><ellipse cx="1292.905" cy="1486.9779" fill="#F1F1F1" rx="118.905" ry="26.181" style="stroke:#181818;stroke-width:0.5;"/><text fill="#000000" font-family="sans-serif" font-size="14" lengthAdjust="spacing" textLength="205.0166" x="1190.3967" y="1489.8246">Formulario Completo? : Si/No</text></g><g id="elem_Guardar Cambios"><ellipse cx="1195.0951" cy="1239.0159" fill="#F1F1F1" rx="81.5951" ry="18.719" style="stroke:#181818;stroke-width:0.5;"/><text fill="#000000" font-family="sans-serif" font-size="14" lengthAdjust="spacing" textLength="122.3564" x="1132.8357" y="1242.2191">Guardar Cambios</text></g><g id="elem_Confirmacion de Edicion Completada"><ellipse cx="433.1989" cy="1363.1367" fill="#F1F1F1" rx="144.6989" ry="31.3398" style="stroke:#181818;stroke-width:0.5;"/><text fill="#000000" font-family="sans-serif" font-size="14" lengthAdjust="spacing" textLength="259.4307" x="303.4836" y="1365.9833">Confirmacion de Edicion Completada</text></g><g id="elem_Busqueda de Pacientes para Medicacion"><ellipse cx="1604.0107" cy="429.399" fill="#F1F1F1" rx="156.0107" ry="33.6021" style="stroke:#181818;stroke-width:0.5;"/><text fill="#000000" font-family="sans-serif" font-size="14" lengthAdjust="spacing" textLength="282.9736" x="1462.5239" y="432.2457">Busqueda de Pacientes para Medicacion</text></g><g id="elem_Seleccionar Paciente para Gestion de Medicacion"><ellipse cx="1697.1654" cy="579.4299" fill="#F1F1F1" rx="186.1654" ry="39.6331" style="stroke:#181818;stroke-width:0.5;"/><text fill="#000000" font-family="sans-serif" font-size="14" lengthAdjust="spacing" textLength="345.1533" x="1524.5887" y="582.2766">Seleccionar Paciente para Gestion de Medicacion</text></g><g id="elem_Lista de Medicamentos del Paciente"><ellipse cx="1596.2197" cy="710.4408" fill="#F1F1F1" rx="141.2197" ry="30.6439" style="stroke:#181818;stroke-width:0.5;"/><text fill="#000000" font-family="sans-serif" font-size="14" lengthAdjust="spacing" textLength="252.1572" x="1470.1411" y="713.2875">Lista de Medicamentos del Paciente</text></g><g id="elem_Formulario Anadir Medicamento"><ellipse cx="2029.7848" cy="1363.3538" fill="#F1F1F1" rx="128.2848" ry="28.057" style="stroke:#181818;stroke-width:0.5;"/><text fill="#000000" font-family="sans-serif" font-size="14" lengthAdjust="spacing" textLength="224.9502" x="1917.3097" y="1366.2005">Formulario Anadir Medicamento</text></g><g id="elem_Formulario Editar Medicamento"><ellipse cx="1739.8408" cy="1363.465" fill="#F1F1F1" rx="126.3408" ry="27.6682" style="stroke:#181818;stroke-width:0.5;"/><text fill="#000000" font-family="sans-serif" font-size="14" lengthAdjust="spacing" textLength="220.835" x="1629.4233" y="1366.3117">Formulario Editar Medicamento</text></g><g id="elem_Confirmacion de Eliminacion de Medicamento"><ellipse cx="1320.0992" cy="970.1167" fill="#F1F1F1" rx="174.5992" ry="37.3198" style="stroke:#181818;stroke-width:0.5;"/><text fill="#000000" font-family="sans-serif" font-size="14" lengthAdjust="spacing" textLength="321.3848" x="1159.4068" y="972.9634">Confirmacion de Eliminacion de Medicamento</text></g><g id="elem_Formulario Medicamento Completo?"><ellipse cx="1740.2162" cy="1486.6401" fill="#F1F1F1" rx="142.2162" ry="30.8432" style="stroke:#181818;stroke-width:0.5;"/><text fill="#000000" font-family="sans-serif" font-size="14" lengthAdjust="spacing" textLength="254.2422" x="1613.0951" y="1489.4868">Formulario Medicamento Completo?</text></g><g id="elem_Posologia Definida?"><ellipse cx="1739.9123" cy="1614.7793" fill="#F1F1F1" rx="87.9123" ry="19.9825" style="stroke:#181818;stroke-width:0.5;"/><text fill="#000000" font-family="sans-serif" font-size="14" lengthAdjust="spacing" textLength="136.999" x="1671.4128" y="1617.626">Posologia Definida?</text></g><g id="elem_Guardar Medicamento sin Posologia"><ellipse cx="1776.7818" cy="1817.4532" fill="#F1F1F1" rx="141.2818" ry="30.6564" style="stroke:#181818;stroke-width:0.5;"/><text fill="#000000" font-family="sans-serif" font-size="14" lengthAdjust="spacing" textLength="252.2871" x="1650.6382" y="1820.2999">Guardar Medicamento sin Posologia</text></g><g id="elem_Boton Definir Posologia"><ellipse cx="1624.2045" cy="1734.1378" fill="#F1F1F1" rx="99.7045" ry="22.3409" style="stroke:#181818;stroke-width:0.5;"/><text fill="#000000" font-family="sans-serif" font-size="14" lengthAdjust="spacing" textLength="163.4063" x="1542.5014" y="1736.9845">Boton Definir Posologia</text></g><g id="elem_Formulario Posologia"><ellipse cx="1543.195" cy="1898.6359" fill="#F1F1F1" rx="92.195" ry="20.839" style="stroke:#181818;stroke-width:0.5;"/><text fill="#000000" font-family="sans-serif" font-size="14" lengthAdjust="spacing" textLength="146.6924" x="1469.8488" y="1901.4826">Formulario Posologia</text></g><g id="elem_Posologia Completa?"><ellipse cx="1344.885" cy="2021.0739" fill="#F1F1F1" rx="91.885" ry="20.777" style="stroke:#181818;stroke-width:0.5;"/><text fill="#000000" font-family="sans-serif" font-size="14" lengthAdjust="spacing" textLength="145.9951" x="1271.8874" y="2023.9206">Posologia Completa?</text></g><g id="elem_Guardar Posologia y Volver al Medicamento"><ellipse cx="1495.9136" cy="2158.6796" fill="#F1F1F1" rx="167.4136" ry="35.8827" style="stroke:#181818;stroke-width:0.5;"/><text fill="#000000" font-family="sans-serif" font-size="14" lengthAdjust="spacing" textLength="306.5713" x="1342.628" y="2161.5263">Guardar Posologia y Volver al Medicamento</text></g><g id="elem_Eliminar Hora de Posologia"><ellipse cx="1583.1277" cy="2021.4224" fill="#F1F1F1" rx="111.1277" ry="24.6255" style="stroke:#181818;stroke-width:0.5;"/><text fill="#000000" font-family="sans-serif" font-size="14" lengthAdjust="spacing" textLength="188.3164" x="1488.9695" y="2024.2691">Eliminar Hora de Posologia</text></g><g id="elem_Guardar Medicamento y Volver a la Lista"><ellipse cx="1776.9576" cy="2289.6884" fill="#F1F1F1" rx="157.4576" ry="33.8915" style="stroke:#181818;stroke-width:0.5;"/><text fill="#000000" font-family="sans-serif" font-size="14" lengthAdjust="spacing" textLength="285.9746" x="1633.9703" y="2292.5351">Guardar Medicamento y Volver a la Lista</text></g><g id="elem_Eliminar Medicamento"><ellipse cx="1543.1896" cy="1107.5348" fill="#F1F1F1" rx="96.6896" ry="21.7379" style="stroke:#181818;stroke-width:0.5;"/><text fill="#000000" font-family="sans-serif" font-size="14" lengthAdjust="spacing" textLength="156.7344" x="1464.8224" y="1110.3815">Eliminar Medicamento</text></g><g id="elem_Volver al Menu Principal"><ellipse cx="1703.1786" cy="970.1326" fill="#F1F1F1" rx="102.1786" ry="22.8357" style="stroke:#181818;stroke-width:0.5;"/><text fill="#000000" font-family="sans-serif" font-size="14" lengthAdjust="spacing" textLength="168.8477" x="1618.7548" y="972.9793">Volver al Menu Principal</text></g><g id="elem_Seleccionar otro Paciente"><ellipse cx="1947.1134" cy="970.5196" fill="#F1F1F1" rx="106.6134" ry="23.7227" style="stroke:#181818;stroke-width:0.5;"/><text fill="#000000" font-family="sans-serif" font-size="14" lengthAdjust="spacing" textLength="178.5342" x="1857.8463" y="973.3662">Seleccionar otro Paciente</text></g><!--link Usuario to Menu Principal--><g id="link_Usuario_Menu Principal"><path d="M923,118.8069 C923,139.3569 923,157.8669 923,173.6169 " fill="none" id="Usuario-to-Menu Principal" style="stroke:#181818;stroke-width:1.0;"/><polygon fill="#181818" points="923,179.6169,927,170.6169,923,174.6169,919,170.6169,923,179.6169" style="stroke:#181818;stroke-width:1.0;"/></g><!--link Menu Principal to Gestion de Medicacion--><g id="link_Menu Principal_Gestion de Medicacion"><path d="M983.78,206.7169 C1029.35,214.2469 1092.9,226.5869 1147,243.7969 C1188.16,256.8869 1227.7685,274.734 1258.6285,289.804 " fill="none" id="Menu Principal-to-Gestion de Medicacion" style="stroke:#181818;stroke-width:1.0;"/><polygon fill="#181818" points="1264.02,292.4369,1257.688,284.8933,1259.5271,290.2428,1254.1775,292.0819,1264.02,292.4369" style="stroke:#181818;stroke-width:1.0;"/><text fill="#000000" font-family="sans-serif" font-size="13" lengthAdjust="spacing" textLength="75.2705" x="1192" y="256.8638">Seleccionar</text><text fill="#000000" font-family="sans-serif" font-size="13" lengthAdjust="spacing" textLength="147.4053" x="1077.3434" y="279.6311">Gestion de Medicacion</text></g><!--link Menu Principal to Formulario Registro de Paciente--><g id="link_Menu Principal_Formulario Registro de Paciente"><path d="M876.91,210.2969 C831.22,225.8269 768,257.1769 768,311.7969 C768,311.7969 768,311.7969 768,837.7969 C768,899.0669 826.7246,930.9246 884.8846,948.7946 " fill="none" id="Menu Principal-to-Formulario Registro de Paciente" style="stroke:#181818;stroke-width:1.0;"/><polygon fill="#181818" points="890.62,950.5569,883.1918,944.0899,885.8405,949.0884,880.8421,951.7371,890.62,950.5569" style="stroke:#181818;stroke-width:1.0;"/><text fill="#000000" font-family="sans-serif" font-size="13" lengthAdjust="spacing" textLength="75.2705" x="769" y="583.8638">Seleccionar</text><text fill="#000000" font-family="sans-serif" font-size="13" lengthAdjust="spacing" textLength="119.4502" x="748.2456" y="935.3505">Registrar Paciente</text></g><!--link Menu Principal to Lista de Pacientes para Edicion--><g id="link_Menu Principal_Lista de Pacientes para Edicion"><path d="M849.51,199.2469 C631.91,204.4969 6,226.9669 6,311.7969 C6,311.7969 6,311.7969 6,837.7969 C6,936.0269 306.5437,960.8565 484.6637,967.1065 " fill="none" id="Menu Principal-to-Lista de Pacientes para Edicion" style="stroke:#181818;stroke-width:1.0;"/><polygon fill="#181818" points="490.66,967.3169,481.8058,963.0037,485.6631,967.1415,481.5253,970.9988,490.66,967.3169" style="stroke:#181818;stroke-width:1.0;"/><text fill="#000000" font-family="sans-serif" font-size="13" lengthAdjust="spacing" textLength="75.2705" x="7" y="583.8638">Seleccionar</text><text fill="#000000" font-family="sans-serif" font-size="13" lengthAdjust="spacing" textLength="98.5156" x="383.7282" y="963.8505">Editar Paciente</text></g><!--link Formulario Registro de Paciente to Formulario Completo?--><g id="link_Formulario Registro de Paciente_Formulario Completo?"><path d="M1060.41,992.5069 C1089.6,1002.9569 1121.73,1017.7169 1147,1037.7969 C1163.37,1050.8069 1173.5938,1065.6132 1181.9638,1080.6632 " fill="none" id="Formulario Registro de Paciente-to-Formulario Completo?" style="stroke:#181818;stroke-width:1.0;"/><polygon fill="#181818" points="1184.88,1085.9069,1184.0014,1076.0973,1182.4498,1081.5372,1177.0099,1079.9856,1184.88,1085.9069" style="stroke:#181818;stroke-width:1.0;"/></g><!--link Formulario Completo? to Mostrar Error de Validacion--><g id="link_Formulario Completo?_Mostrar Error de Validacion"><path d="M1214.35,1128.6469 C1229.29,1143.4869 1251.06,1163.2769 1273,1176.7969 C1300.44,1193.7069 1327.7437,1205.5997 1355.8537,1215.8597 " fill="none" id="Formulario Completo?-to-Mostrar Error de Validacion" style="stroke:#181818;stroke-width:1.0;"/><polygon fill="#181818" points="1361.49,1217.9169,1354.407,1211.0735,1356.7931,1216.2025,1351.6641,1218.5886,1361.49,1217.9169" style="stroke:#181818;stroke-width:1.0;"/><text fill="#000000" font-family="sans-serif" font-size="13" lengthAdjust="spacing" textLength="17.6782" x="1274" y="1172.8638">No</text></g><!--link Formulario Completo? to Mostrar Error de Validacion--><g id="link_Formulario Completo?_Mostrar Error de Validacion"><path d="M1233.73,1127.1869 C1252.68,1136.6469 1275.72,1148.4669 1296,1159.7969 C1327.69,1177.4969 1357.7683,1195.8768 1383.2083,1211.8468 " fill="none" id="Formulario Completo?-to-Mostrar Error de Validacion-1" style="stroke:#181818;stroke-width:1.0;"/><polygon fill="#181818" points="1388.29,1215.0369,1382.7942,1206.864,1384.0553,1212.3785,1378.5408,1213.6396,1388.29,1215.0369" style="stroke:#181818;stroke-width:1.0;"/><text fill="#000000" font-family="sans-serif" font-size="13" lengthAdjust="spacing" textLength="17.6782" x="1326" y="1172.8638">No</text></g><!--link Formulario Completo? to Confirmacion de Registro Completado--><g id="link_Formulario Completo?_Confirmacion de Registro Completado"><path d="M1156.47,1127.1269 C1112.33,1148.6969 1044.9108,1181.6426 993.7908,1206.6226 " fill="none" id="Formulario Completo?-to-Confirmacion de Registro Completado" style="stroke:#181818;stroke-width:1.0;"/><polygon fill="#181818" points="988.4,1209.2569,998.2424,1208.8994,992.8923,1207.0617,994.73,1201.7116,988.4,1209.2569" style="stroke:#181818;stroke-width:1.0;"/><text fill="#000000" font-family="sans-serif" font-size="13" lengthAdjust="spacing" textLength="11.8638" x="1088" y="1172.8638">Si</text></g><!--link Mostrar Error de Validacion to Formulario Registro de Paciente--><g id="link_Mostrar Error de Validacion_Formulario Registro de Paciente"><path d="M1411.51,1213.7069 C1393.09,1180.3469 1355.61,1120.2069 1308,1084.7969 C1268.15,1055.1569 1149.01,1017.9621 1065.89,994.2621 " fill="none" id="Mostrar Error de Validacion-to-Formulario Registro de Paciente" style="stroke:#181818;stroke-width:1.0;"/><polygon fill="#181818" points="1060.12,992.6169,1067.6782,998.9314,1064.9284,993.9879,1069.8719,991.238,1060.12,992.6169" style="stroke:#181818;stroke-width:1.0;"/></g><!--link Confirmacion de Registro Completado to Que desea hacer?--><g id="link_Confirmacion de Registro Completado_Que desea hacer?"><path d="M899.46,1207.4269 C867.79,1173.5769 820.27,1115.5669 801,1054.7969 C783.95,1001.0269 793.64,970.0569 836,932.7969 C895.31,880.6269 1114.553,854.8312 1235.723,844.2012 " fill="none" id="Confirmacion de Registro Completado-to-Que desea hacer?" style="stroke:#181818;stroke-width:1.0;"/><polygon fill="#181818" points="1241.7,843.6769,1232.3849,840.4787,1236.7191,844.1138,1233.084,848.4481,1241.7,843.6769" style="stroke:#181818;stroke-width:1.0;"/><text fill="#000000" font-family="sans-serif" font-size="13" lengthAdjust="spacing" textLength="336.7368" x="802" y="1050.8638">&#191;Registrar otro Paciente o Volver al Men&#250; Principal?</text></g><!--link Que desea hacer? to Formulario Registro de Paciente--><g id="link_Que desea hacer?_Formulario Registro de Paciente"><path d="M1267.45,851.6169 C1236.16,860.3469 1195.88,872.4769 1161,885.7969 C1115.83,903.0469 1071.4911,923.9527 1035.9411,941.6527 " fill="none" id="Que desea hacer?-to-Formulario Registro de Paciente" style="stroke:#181818;stroke-width:1.0;"/><polygon fill="#181818" points="1030.57,944.3269,1040.4094,943.8963,1035.0459,942.0984,1036.8438,936.7348,1030.57,944.3269" style="stroke:#181818;stroke-width:1.0;"/><text fill="#000000" font-family="sans-serif" font-size="13" lengthAdjust="spacing" textLength="149.9316" x="1162" y="898.8638">Registrar otro Paciente</text></g><!--link Que desea hacer? to Menu Principal--><g id="link_Que desea hacer?_Menu Principal"><path d="M1245.79,827.8569 C1130.89,813.4769 923,778.2069 923,711.2969 C923,311.7969 923,311.7969 923,311.7969 C923,276.9669 923,242.1469 923,220.0369 " fill="none" id="Que desea hacer?-to-Menu Principal" style="stroke:#181818;stroke-width:1.0;"/><polygon fill="#181818" points="923,214.0369,919,223.0369,923,219.0369,927,223.0369,923,214.0369" style="stroke:#181818;stroke-width:1.0;"/><text fill="#000000" font-family="sans-serif" font-size="13" lengthAdjust="spacing" textLength="156.7871" x="924" y="505.8638">Volver al Menu Principal</text></g><!--link Que desea hacer? to Menu Principal--><g id="link_Que desea hacer?_Menu Principal"><path d="M1257.58,824.0569 C1199.22,809.0369 1121,776.7069 1121,711.2969 C1121,311.7969 1121,311.7969 1121,311.7969 C1121,247.5369 1047.5799,220.1998 989.3499,207.8698 " fill="none" id="Que desea hacer?-to-Menu Principal-1" style="stroke:#181818;stroke-width:1.0;"/><polygon fill="#181818" points="983.48,206.6269,991.4562,212.4045,988.3715,207.6626,993.1134,204.578,983.48,206.6269" style="stroke:#181818;stroke-width:1.0;"/><text fill="#000000" font-family="sans-serif" font-size="13" lengthAdjust="spacing" textLength="156.7871" x="1122" y="505.8638">Volver al Menu Principal</text></g><!--link Lista de Pacientes para Edicion to Busqueda de Pacientes--><g id="link_Lista de Pacientes para Edicion_Busqueda de Pacientes"><path d="M621.52,997.9669 C627.72,1023.3269 635.5062,1055.1683 641.2662,1078.7483 " fill="none" id="Lista de Pacientes para Edicion-to-Busqueda de Pacientes" style="stroke:#181818;stroke-width:1.0;"/><polygon fill="#181818" points="642.69,1084.5769,644.4401,1074.8848,641.5035,1079.7197,636.6686,1076.7831,642.69,1084.5769" style="stroke:#181818;stroke-width:1.0;"/></g><!--link Busqueda de Pacientes to Seleccionar Paciente para Edicion--><g id="link_Busqueda de Pacientes_Seleccionar Paciente para Edicion"><path d="M641.97,1129.9769 C635.89,1151.8569 628.0659,1179.9858 621.4159,1203.9258 " fill="none" id="Busqueda de Pacientes-to-Seleccionar Paciente para Edicion" style="stroke:#181818;stroke-width:1.0;"/><polygon fill="#181818" points="619.81,1209.7069,626.0729,1202.1058,621.1482,1204.8893,618.3647,1199.9646,619.81,1209.7069" style="stroke:#181818;stroke-width:1.0;"/></g><!--link Seleccionar Paciente para Edicion to Formulario Edicion de Paciente--><g id="link_Seleccionar Paciente para Edicion_Formulario Edicion de Paciente"><path d="M706.38,1259.4969 C725.43,1263.3469 745.34,1267.2769 764,1270.7969 C913.98,1299.0569 1082.6108,1327.6154 1188.9408,1345.2454 " fill="none" id="Seleccionar Paciente para Edicion-to-Formulario Edicion de Paciente" style="stroke:#181818;stroke-width:1.0;"/><polygon fill="#181818" points="1194.86,1346.2269,1186.6355,1340.8086,1189.9273,1345.409,1185.3269,1348.7009,1194.86,1346.2269" style="stroke:#181818;stroke-width:1.0;"/></g><!--link Formulario Edicion de Paciente to Formulario Completo? : Si/No--><g id="link_Formulario Edicion de Paciente_Formulario Completo? : Si/No"><path d="M1293,1390.9569 C1293,1411.6369 1293,1434.1069 1293,1454.4469 " fill="none" id="Formulario Edicion de Paciente-to-Formulario Completo? : Si/No" style="stroke:#181818;stroke-width:1.0;"/><polygon fill="#181818" points="1293,1460.4469,1297,1451.4469,1293,1455.4469,1289,1451.4469,1293,1460.4469" style="stroke:#181818;stroke-width:1.0;"/></g><!--link Formulario Completo? to Guardar Cambios--><g id="link_Formulario Completo?_Guardar Cambios"><path d="M1195,1128.8169 C1195,1154.0669 1195,1190.4969 1195,1214.2769 " fill="none" id="Formulario Completo?-to-Guardar Cambios" style="stroke:#181818;stroke-width:1.0;"/><polygon fill="#181818" points="1195,1220.2769,1199,1211.2769,1195,1215.2769,1191,1211.2769,1195,1220.2769" style="stroke:#181818;stroke-width:1.0;"/><text fill="#000000" font-family="sans-serif" font-size="13" lengthAdjust="spacing" textLength="11.8638" x="1196" y="1172.8638">Si</text></g><!--link Mostrar Error de Validacion to Formulario Edicion de Paciente--><g id="link_Mostrar Error de Validacion_Formulario Edicion de Paciente"><path d="M1398.74,1263.4169 C1376.44,1284.2769 1348.3527,1310.5391 1325.2827,1332.1091 " fill="none" id="Mostrar Error de Validacion-to-Formulario Edicion de Paciente" style="stroke:#181818;stroke-width:1.0;"/><polygon fill="#181818" points="1320.9,1336.2069,1330.2059,1332.982,1324.5523,1332.7921,1324.7422,1327.1384,1320.9,1336.2069" style="stroke:#181818;stroke-width:1.0;"/></g><!--link Guardar Cambios to Confirmacion de Edicion Completada--><g id="link_Guardar Cambios_Confirmacion de Edicion Completada"><path d="M1152.54,1254.7969 C1135.19,1260.4769 1114.81,1266.5869 1096,1270.7969 C914.16,1311.5169 705.9203,1336.5305 571.2703,1349.9805 " fill="none" id="Guardar Cambios-to-Confirmacion de Edicion Completada" style="stroke:#181818;stroke-width:1.0;"/><polygon fill="#181818" points="565.3,1350.5769,574.653,1353.6625,570.2752,1350.0799,573.8579,1345.7021,565.3,1350.5769" style="stroke:#181818;stroke-width:1.0;"/></g><!--link Confirmacion de Edicion Completada to Que desea hacer?--><g id="link_Confirmacion de Edicion Completada_Que desea hacer?"><path d="M309.27,1347.0169 C196.37,1329.5169 47,1295.7769 47,1239.7969 C47,969.2969 47,969.2969 47,969.2969 C47,849.3169 947.27,838.1985 1230.47,837.6485 " fill="none" id="Confirmacion de Edicion Completada-to-Que desea hacer?" style="stroke:#181818;stroke-width:1.0;"/><polygon fill="#181818" points="1236.47,837.6369,1227.4622,833.6544,1231.47,837.6466,1227.4778,841.6543,1236.47,837.6369" style="stroke:#181818;stroke-width:1.0;"/><text fill="#000000" font-family="sans-serif" font-size="13" lengthAdjust="spacing" textLength="464.4009" x="48" y="1111.8638">&#191;Editar otro Paciente, Gestionar Medicaci&#243;n o Volver al Men&#250; Principal?</text></g><!--link Que desea hacer? to Lista de Pacientes para Edicion--><g id="link_Que desea hacer?_Lista de Pacientes para Edicion"><path d="M1236.88,839.0769 C1068.68,842.3469 699.88,853.1869 653,885.7969 C634.3,898.8069 626.1267,917.524 621.2367,936.644 " fill="none" id="Que desea hacer?-to-Lista de Pacientes para Edicion" style="stroke:#181818;stroke-width:1.0;"/><polygon fill="#181818" points="619.75,942.4569,625.8553,934.7286,620.9889,937.6128,618.1047,932.7464,619.75,942.4569" style="stroke:#181818;stroke-width:1.0;"/><text fill="#000000" font-family="sans-serif" font-size="13" lengthAdjust="spacing" textLength="128.9971" x="654" y="898.8638">Editar otro Paciente</text></g><!--link Que desea hacer? to Gestion de Medicacion--><g id="link_Que desea hacer?_Gestion de Medicacion"><path d="M1315.73,817.7669 C1310.41,793.6569 1302,749.5169 1302,711.2969 C1302,428.2969 1302,428.2969 1302,428.2969 C1302,395.6969 1302,363.8769 1302,340.8969 " fill="none" id="Que desea hacer?-to-Gestion de Medicacion" style="stroke:#181818;stroke-width:1.0;"/><polygon fill="#181818" points="1302,334.8969,1298,343.8969,1302,339.8969,1306,343.8969,1302,334.8969" style="stroke:#181818;stroke-width:1.0;"/><text fill="#000000" font-family="sans-serif" font-size="13" lengthAdjust="spacing" textLength="172.8149" x="1303" y="583.8638">Ir a Gestion de Medicacion</text></g><!--link Gestion de Medicacion to Busqueda de Pacientes para Medicacion--><g id="link_Gestion de Medicacion_Busqueda de Pacientes para Medicacion"><path d="M1350.19,332.0669 C1398.31,350.3169 1467.3698,376.4896 1523.2798,397.6896 " fill="none" id="Gestion de Medicacion-to-Busqueda de Pacientes para Medicacion" style="stroke:#181818;stroke-width:1.0;"/><polygon fill="#181818" points="1528.89,399.8169,1521.8929,392.8858,1524.2148,398.0441,1519.0565,400.3661,1528.89,399.8169" style="stroke:#181818;stroke-width:1.0;"/></g><!--link Busqueda de Pacientes para Medicacion to Seleccionar Paciente para Gestion de Medicacion--><g id="link_Busqueda de Pacientes para Medicacion_Seleccionar Paciente para Gestion de Medicacion"><path d="M1624.41,462.7769 C1638.69,485.4969 1654.6172,510.8569 1669.6572,534.7869 " fill="none" id="Busqueda de Pacientes para Medicacion-to-Seleccionar Paciente para Gestion de Medicacion" style="stroke:#181818;stroke-width:1.0;"/><polygon fill="#181818" points="1672.85,539.8669,1671.4475,530.1184,1670.1894,535.6336,1664.6742,534.3754,1672.85,539.8669" style="stroke:#181818;stroke-width:1.0;"/></g><!--link Seleccionar Paciente para Gestion de Medicacion to Lista de Medicamentos del Paciente--><g id="link_Seleccionar Paciente para Gestion de Medicacion_Lista de Medicamentos del Paciente"><path d="M1667.24,618.3069 C1651.76,638.0769 1636.8376,657.1316 1622.5176,675.4316 " fill="none" id="Seleccionar Paciente para Gestion de Medicacion-to-Lista de Medicamentos del Paciente" style="stroke:#181818;stroke-width:1.0;"/><polygon fill="#181818" points="1618.82,680.1569,1627.5165,675.5341,1621.9013,676.2192,1621.2162,670.604,1618.82,680.1569" style="stroke:#181818;stroke-width:1.0;"/></g><!--link Lista de Medicamentos del Paciente to Que desea hacer?--><g id="link_Lista de Medicamentos del Paciente_Que desea hacer?"><path d="M1536.79,738.0069 C1481.83,762.7969 1407.2596,796.4403 1361.3796,817.1303 " fill="none" id="Lista de Medicamentos del Paciente-to-Que desea hacer?" style="stroke:#181818;stroke-width:1.0;"/><polygon fill="#181818" points="1355.91,819.5969,1365.7587,819.5434,1360.468,817.5414,1362.47,812.2507,1355.91,819.5969" style="stroke:#181818;stroke-width:1.0;"/><text fill="#000000" font-family="sans-serif" font-size="13" lengthAdjust="spacing" textLength="121.4688" x="1459" y="783.8638">Seleccionar accion</text></g><!--link Que desea hacer? to Formulario Anadir Medicamento--><g id="link_Que desea hacer?_Formulario Anadir Medicamento"><path d="M1403.5,838.2569 C1567.75,839.9869 1927.02,848.1069 2044,885.7969 C2110.79,907.3169 2178,899.1269 2178,969.2969 C2178,969.2969 2178,969.2969 2178,1239.7969 C2178,1286.8269 2138.4959,1316.5832 2098.1659,1336.1932 " fill="none" id="Que desea hacer?-to-Formulario Anadir Medicamento" style="stroke:#181818;stroke-width:1.0;"/><polygon fill="#181818" points="2092.77,1338.8169,2102.613,1338.4786,2097.2666,1336.6304,2099.1148,1331.284,2092.77,1338.8169" style="stroke:#181818;stroke-width:1.0;"/><text fill="#000000" font-family="sans-serif" font-size="13" lengthAdjust="spacing" textLength="134.583" x="2179" y="1111.8638">Anadir Medicamento</text></g><!--link Que desea hacer? to Formulario Editar Medicamento--><g id="link_Que desea hacer?_Formulario Editar Medicamento"><path d="M1403.24,838.8969 C1558.29,841.7369 1885.38,851.7069 1993,885.7969 C2031.58,898.0169 2051.09,897.5569 2071,932.7969 C2087.4,961.8169 2083.23,976.7869 2071,1007.7969 C2066.89,1018.2169 1845.1458,1251.81 1768.9358,1331.91 " fill="none" id="Que desea hacer?-to-Formulario Editar Medicamento" style="stroke:#181818;stroke-width:1.0;"/><polygon fill="#181818" points="1764.8,1336.2569,1773.9016,1332.4937,1768.2465,1332.6345,1768.1057,1326.9794,1764.8,1336.2569" style="stroke:#181818;stroke-width:1.0;"/><text fill="#000000" font-family="sans-serif" font-size="13" lengthAdjust="spacing" textLength="130.7617" x="2001" y="1111.8638">Editar Medicamento</text></g><!--link Que desea hacer? to Confirmacion de Eliminacion de Medicamento--><g id="link_Que desea hacer?_Confirmacion de Eliminacion de Medicamento"><path d="M1320,855.8069 C1320,875.4969 1320,901.5969 1320,926.6369 " fill="none" id="Que desea hacer?-to-Confirmacion de Eliminacion de Medicamento" style="stroke:#181818;stroke-width:1.0;"/><polygon fill="#181818" points="1320,932.6369,1324,923.6369,1320,927.6369,1316,923.6369,1320,932.6369" style="stroke:#181818;stroke-width:1.0;"/><text fill="#000000" font-family="sans-serif" font-size="13" lengthAdjust="spacing" textLength="145.5391" x="1321" y="898.8638">Eliminar Medicamento</text></g><!--link Formulario Anadir Medicamento to Formulario Medicamento Completo?--><g id="link_Formulario Anadir Medicamento_Formulario Medicamento Completo?"><path d="M1972.36,1388.4469 C1923.71,1408.8269 1859.6836,1435.6476 1809.3636,1456.7376 " fill="none" id="Formulario Anadir Medicamento-to-Formulario Medicamento Completo?" style="stroke:#181818;stroke-width:1.0;"/><polygon fill="#181818" points="1803.83,1459.0569,1813.6766,1459.2671,1808.4414,1457.1242,1810.5843,1451.8889,1803.83,1459.0569" style="stroke:#181818;stroke-width:1.0;"/></g><!--link Formulario Editar Medicamento to Formulario Medicamento Completo?--><g id="link_Formulario Editar Medicamento_Formulario Medicamento Completo?"><path d="M1740,1390.9569 C1740,1410.0969 1740,1429.9169 1740,1449.7769 " fill="none" id="Formulario Editar Medicamento-to-Formulario Medicamento Completo?" style="stroke:#181818;stroke-width:1.0;"/><polygon fill="#181818" points="1740,1455.7769,1744,1446.7769,1740,1450.7769,1736,1446.7769,1740,1455.7769" style="stroke:#181818;stroke-width:1.0;"/></g><!--link Formulario Medicamento Completo? to Mostrar Error de Validacion--><g id="link_Formulario Medicamento Completo?_Mostrar Error de Validacion"><path d="M1679.84,1458.6969 C1647.59,1442.6269 1608.19,1420.3969 1577,1394.7969 C1534.6,1359.9869 1535.97,1339.4169 1497,1300.7969 C1483.63,1287.5469 1472.3594,1277.7647 1458.7894,1266.8147 " fill="none" id="Formulario Medicamento Completo?-to-Mostrar Error de Validacion" style="stroke:#181818;stroke-width:1.0;"/><polygon fill="#181818" points="1454.12,1263.0469,1458.6122,1271.8116,1458.0112,1266.1868,1463.636,1265.5857,1454.12,1263.0469" style="stroke:#181818;stroke-width:1.0;"/><text fill="#000000" font-family="sans-serif" font-size="13" lengthAdjust="spacing" textLength="17.6782" x="1578" y="1367.8638">No</text></g><!--link Formulario Medicamento Completo? to Posologia Definida?--><g id="link_Formulario Medicamento Completo?_Posologia Definida?"><path d="M1740,1517.9769 C1740,1541.7069 1740,1568.0669 1740,1588.4469 " fill="none" id="Formulario Medicamento Completo?-to-Posologia Definida?" style="stroke:#181818;stroke-width:1.0;"/><polygon fill="#181818" points="1740,1594.4469,1744,1585.4469,1740,1589.4469,1736,1585.4469,1740,1594.4469" style="stroke:#181818;stroke-width:1.0;"/><text fill="#000000" font-family="sans-serif" font-size="13" lengthAdjust="spacing" textLength="11.8638" x="1741" y="1560.8638">Si</text></g><!--link Mostrar Error de Validacion to Formulario Anadir Medicamento--><g id="link_Mostrar Error de Validacion_Formulario Anadir Medicamento"><path d="M1505.89,1255.9569 C1597.91,1274.1669 1751.74,1304.7569 1884,1331.7969 C1902.01,1335.4769 1915.3863,1338.2424 1933.8063,1342.0824 " fill="none" id="Mostrar Error de Validacion-to-Formulario Anadir Medicamento" style="stroke:#181818;stroke-width:1.0;"/><polygon fill="#181818" points="1939.68,1343.3069,1931.6857,1337.5543,1934.7852,1342.2865,1930.0531,1345.386,1939.68,1343.3069" style="stroke:#181818;stroke-width:1.0;"/></g><!--link Mostrar Error de Validacion to Formulario Editar Medicamento--><g id="link_Mostrar Error de Validacion_Formulario Editar Medicamento"><path d="M1479.59,1260.6169 C1510.65,1272.3069 1550.03,1287.2369 1585,1300.7969 C1616.99,1313.1969 1646.9972,1325.0735 1675.9972,1336.6435 " fill="none" id="Mostrar Error de Validacion-to-Formulario Editar Medicamento" style="stroke:#181818;stroke-width:1.0;"/><polygon fill="#181818" points="1681.57,1338.8669,1674.693,1331.8166,1676.926,1337.0141,1671.7285,1339.247,1681.57,1338.8669" style="stroke:#181818;stroke-width:1.0;"/></g><!--link Posologia Definida? to Guardar Medicamento sin Posologia--><g id="link_Posologia Definida?_Guardar Medicamento sin Posologia"><path d="M1743.55,1635.0169 C1750.02,1670.1069 1762.7113,1738.8565 1770.4113,1780.5865 " fill="none" id="Posologia Definida?-to-Guardar Medicamento sin Posologia" style="stroke:#181818;stroke-width:1.0;"/><polygon fill="#181818" points="1771.5,1786.4869,1773.8005,1776.9105,1770.5927,1781.5699,1765.9333,1778.3621,1771.5,1786.4869" style="stroke:#181818;stroke-width:1.0;"/><text fill="#000000" font-family="sans-serif" font-size="13" lengthAdjust="spacing" textLength="17.6782" x="1752" y="1677.8638">No</text></g><!--link Posologia Definida? to Boton Definir Posologia--><g id="link_Posologia Definida?_Boton Definir Posologia"><path d="M1721.62,1634.4169 C1700.79,1655.5069 1671.1256,1685.5573 1649.2556,1707.7073 " fill="none" id="Posologia Definida?-to-Boton Definir Posologia" style="stroke:#181818;stroke-width:1.0;"/><polygon fill="#181818" points="1645.04,1711.9769,1654.2097,1708.3829,1648.553,1708.4189,1648.517,1702.7622,1645.04,1711.9769" style="stroke:#181818;stroke-width:1.0;"/><text fill="#000000" font-family="sans-serif" font-size="13" lengthAdjust="spacing" textLength="11.8638" x="1689" y="1677.8638">Si</text></g><!--link Boton Definir Posologia to Formulario Posologia--><g id="link_Boton Definir Posologia_Formulario Posologia"><path d="M1613.24,1756.8769 C1597.45,1788.5569 1570.887,1841.8572 1555.587,1872.5472 " fill="none" id="Boton Definir Posologia-to-Formulario Posologia" style="stroke:#181818;stroke-width:1.0;"/><polygon fill="#181818" points="1552.91,1877.9169,1560.5053,1871.647,1555.1408,1873.4421,1553.3457,1868.0777,1552.91,1877.9169" style="stroke:#181818;stroke-width:1.0;"/></g><!--link Formulario Posologia to Posologia Completa?--><g id="link_Formulario Posologia_Posologia Completa?"><path d="M1512.06,1918.6269 C1474.97,1941.1969 1418.3046,1975.6763 1381.1746,1998.2863 " fill="none" id="Formulario Posologia-to-Posologia Completa?" style="stroke:#181818;stroke-width:1.0;"/><polygon fill="#181818" points="1376.05,2001.4069,1385.8173,2000.1424,1380.3205,1998.8064,1381.6565,1993.3096,1376.05,2001.4069" style="stroke:#181818;stroke-width:1.0;"/></g><!--link Posologia Completa? to Mostrar Error de Validacion--><g id="link_Posologia Completa?_Mostrar Error de Validacion"><path d="M1264.23,2011.1569 C1197.96,1998.6269 1115,1969.1069 1115,1899.7969 C1115,1362.2969 1115,1362.2969 1115,1362.2969 C1115,1341.3269 1132.74,1342.1069 1151,1331.7969 C1213.28,1296.6369 1285.3663,1273.569 1341.9863,1258.719 " fill="none" id="Posologia Completa?-to-Mostrar Error de Validacion" style="stroke:#181818;stroke-width:1.0;"/><polygon fill="#181818" points="1347.79,1257.1969,1338.0697,1255.611,1342.9536,1258.4653,1340.0992,1263.3493,1347.79,1257.1969" style="stroke:#181818;stroke-width:1.0;"/><text fill="#000000" font-family="sans-serif" font-size="13" lengthAdjust="spacing" textLength="17.6782" x="1116" y="1619.3638">No</text></g><!--link Posologia Completa? to Guardar Posologia y Volver al Medicamento--><g id="link_Posologia Completa?_Guardar Posologia y Volver al Medicamento"><path d="M1366.63,2041.7069 C1390.37,2063.0069 1424.4445,2093.5895 1453.2945,2119.4795 " fill="none" id="Posologia Completa?-to-Guardar Posologia y Volver al Medicamento" style="stroke:#181818;stroke-width:1.0;"/><polygon fill="#181818" points="1457.76,2123.4869,1453.7333,2114.4988,1454.0387,2120.1474,1448.3901,2120.4528,1457.76,2123.4869" style="stroke:#181818;stroke-width:1.0;"/><text fill="#000000" font-family="sans-serif" font-size="13" lengthAdjust="spacing" textLength="11.8638" x="1422" y="2088.8638">Si</text></g><!--link Mostrar Error de Validacion to Formulario Posologia--><g id="link_Mostrar Error de Validacion_Formulario Posologia"><path d="M1439.13,1263.6269 C1452.87,1287.5969 1471,1326.0769 1471,1362.2969 C1471,1362.2969 1471,1362.2969 1471,1735.2969 C1471,1790.8369 1503.0983,1843.7447 1524.2283,1873.1447 " fill="none" id="Mostrar Error de Validacion-to-Formulario Posologia" style="stroke:#181818;stroke-width:1.0;"/><polygon fill="#181818" points="1527.73,1878.0169,1525.7256,1868.3741,1524.8119,1873.9567,1519.2294,1873.043,1527.73,1878.0169" style="stroke:#181818;stroke-width:1.0;"/></g><!--link Formulario Posologia to Eliminar Hora de Posologia--><g id="link_Formulario Posologia_Eliminar Hora de Posologia"><path d="M1549.7,1919.9669 C1556.72,1941.1369 1565.8703,1968.7022 1573.2903,1991.0622 " fill="none" id="Formulario Posologia-to-Eliminar Hora de Posologia" style="stroke:#181818;stroke-width:1.0;"/><polygon fill="#181818" points="1575.18,1996.7569,1576.1418,1986.9551,1573.6052,1992.0113,1568.549,1989.4747,1575.18,1996.7569" style="stroke:#181818;stroke-width:1.0;"/><text fill="#000000" font-family="sans-serif" font-size="13" lengthAdjust="spacing" textLength="88.4355" x="1565" y="1962.8638">Eliminar Hora</text></g><!--link Guardar Posologia y Volver al Medicamento to Guardar Medicamento y Volver a la Lista--><g id="link_Guardar Posologia y Volver al Medicamento_Guardar Medicamento y Volver a la Lista"><path d="M1565.46,2191.6869 C1610.15,2212.2069 1662.4071,2236.1937 1706.2571,2256.3237 " fill="none" id="Guardar Posologia y Volver al Medicamento-to-Guardar Medicamento y Volver a la Lista" style="stroke:#181818;stroke-width:1.0;"/><polygon fill="#181818" points="1711.71,2258.8269,1705.1995,2251.4368,1707.1659,2256.7409,1701.8619,2258.7073,1711.71,2258.8269" style="stroke:#181818;stroke-width:1.0;"/></g><!--link Guardar Medicamento sin Posologia to Guardar Medicamento y Volver a la Lista--><g id="link_Guardar Medicamento sin Posologia_Guardar Medicamento y Volver a la Lista"><path d="M1777,1847.8569 C1777,1875.9969 1777,1919.5269 1777,1957.2969 C1777,1957.2969 1777,1957.2969 1777,2159.7969 C1777,2192.3869 1777,2223.5969 1777,2249.6569 " fill="none" id="Guardar Medicamento sin Posologia-to-Guardar Medicamento y Volver a la Lista" style="stroke:#181818;stroke-width:1.0;"/><polygon fill="#181818" points="1777,2255.6569,1781,2246.6569,1777,2250.6569,1773,2246.6569,1777,2255.6569" style="stroke:#181818;stroke-width:1.0;"/></g><!--link Confirmacion de Eliminacion de Medicamento to Eliminar Medicamento--><g id="link_Confirmacion de Eliminacion de Medicamento_Eliminar Medicamento"><path d="M1377.14,1005.8869 C1419.59,1031.5869 1470.8375,1062.6092 1505.7175,1083.7292 " fill="none" id="Confirmacion de Eliminacion de Medicamento-to-Eliminar Medicamento" style="stroke:#181818;stroke-width:1.0;"/><polygon fill="#181818" points="1510.85,1086.8369,1505.2231,1078.7537,1506.573,1084.2471,1501.0795,1085.5969,1510.85,1086.8369" style="stroke:#181818;stroke-width:1.0;"/></g><!--link Guardar Medicamento y Volver a la Lista to Que desea hacer?--><g id="link_Guardar Medicamento y Volver a la Lista_Que desea hacer?"><path d="M1933.17,2285.0169 C2107.97,2276.4369 2367,2248.7269 2367,2159.7969 C2367,969.2969 2367,969.2969 2367,969.2969 C2367,872.3169 1656.6681,845.9485 1409.0281,839.6885 " fill="none" id="Guardar Medicamento y Volver a la Lista-to-Que desea hacer?" style="stroke:#181818;stroke-width:1.0;"/><polygon fill="#181818" points="1403.03,839.5369,1411.926,843.763,1408.0284,839.6632,1412.1282,835.7656,1403.03,839.5369" style="stroke:#181818;stroke-width:1.0;"/></g><!--link Eliminar Medicamento to Que desea hacer?--><g id="link_Eliminar Medicamento_Que desea hacer?"><path d="M1544.14,1085.7769 C1545.39,1040.2369 1541.03,931.1769 1475,885.7969 C1448.3,867.4469 1420.1394,857.3175 1390.7994,850.1675 " fill="none" id="Eliminar Medicamento-to-Que desea hacer?" style="stroke:#181818;stroke-width:1.0;"/><polygon fill="#181818" points="1384.97,848.7469,1392.767,854.764,1389.8278,849.9307,1394.6612,846.9915,1384.97,848.7469" style="stroke:#181818;stroke-width:1.0;"/></g><!--link Que desea hacer? to Volver al Menu Principal--><g id="link_Que desea hacer?_Volver al Menu Principal"><path d="M1396.62,844.4669 C1448.19,850.8169 1516.92,862.9569 1574,885.7969 C1612.39,901.1569 1646.8259,924.8665 1671.7759,944.0765 " fill="none" id="Que desea hacer?-to-Volver al Menu Principal" style="stroke:#181818;stroke-width:1.0;"/><polygon fill="#181818" points="1676.53,947.7369,1671.8391,939.0769,1672.5682,944.6866,1666.9586,945.4157,1676.53,947.7369" style="stroke:#181818;stroke-width:1.0;"/><text fill="#000000" font-family="sans-serif" font-size="13" lengthAdjust="spacing" textLength="156.7871" x="1609" y="898.8638">Volver al Menu Principal</text></g><!--link Que desea hacer? to Seleccionar otro Paciente--><g id="link_Que desea hacer?_Seleccionar otro Paciente"><path d="M1403.64,838.0969 C1495.98,840.3869 1648.23,849.9669 1774,885.7969 C1824.36,900.1369 1872.825,925.2949 1906.795,944.9249 " fill="none" id="Que desea hacer?-to-Seleccionar otro Paciente" style="stroke:#181818;stroke-width:1.0;"/><polygon fill="#181818" points="1911.99,947.9269,1906.1988,939.9605,1907.6608,945.4252,1902.1962,946.8872,1911.99,947.9269" style="stroke:#181818;stroke-width:1.0;"/><text fill="#000000" font-family="sans-serif" font-size="13" lengthAdjust="spacing" textLength="165.7817" x="1819" y="898.8638">Seleccionar otro Paciente</text></g><!--SRC=[jLRDZjCm4BxxAKPxWKfKt7kWOhlRfHAK0cBltiJRDN8onKcGbdVYn8qB4ljYE75-RCTkt0fkYMVccnz_C-EIbuB1MbHV458cO2TnBsb6OGuth2ZvqyzSdSEE9fpb9IlW4Twnb2VgNua8UGRp-HmssyrgytwXH7cb87YUy0CLjOWiFXSLbHmNwkyLFBSrPiGzq5gDQsmyTzumdy42FZ71alg7IhZmQbq48DSeiqhKaS17jkT5AT5CR0JUAgdFJYM4_5RfKRj81oefNAkGV66hyzA2ROle2wifuNJiReOhp0w2bRYS4VznUnceCxoM4cMDU4i5J_jYR_6ezGhpUowpHhqsxaDh5McAJUwS77SKTJqapbs3zQ5YIg5W51vemkIoZkBFx-52iRRgAunmY-8Raw08g-xtwTTmmKlYmOfbKy1V4DBbriAEov1rX6a9DkRB92CRXvTLyRLYgQse2kq_rpOcaNkV5ZQ9q1dLq9E9pLoVGfZr3UjURl5_ilz6JRLKMQzeTiUnE8lf_hH7oDvkwsnxzbDFZtYKZhL8Evailhw0TimgWJ7vpskRY57fYo685zmJ6nKNUAN_iF-y-Be30u65-qxNmT0baNfJVUcFX9niuLoWbcJA2WlzS1W87A4KPg4P5sq-kdA_pcdA5JCwYXZekkZJixg5C2nhb-FJ6Ann50PzOx16pIfunlF-rmNMKWTw8ZStPhDana0ZKtcTWnFGEMFq7aFQOO42zvp25RldkG9PdZMAVTKxVPgxXUkeUyKINZHZiy0xoK1GQ0D_-a4rURs9M9l6B4F1S-WjkfA58IwnLAJIfz8sL9NgWtJ4Eh2WhPl_82B-O_V6kgrKlr9zfz5S2HjtjHiq7gsnRhNOoQI9pBXltJSezJGtBy2Izgl5S-TwiSGd52JFO54JiPdMnhFZ2CrEG-nUgPx1fNCvPG3QXVJrs5f91FzkBk78I0FBYFZz1RK3OpxqYZZwmWY1cTlHUYAvgzCI_WK0]--></g></svg>